<?xml version="1.0" encoding="UTF-8"?>
<svg id="Calque_1" data-name="Calque 1" xmlns="http://www.w3.org/2000/svg" viewBox="0 0 477 485">
  <path d="M0,221C0,147.33,0,73.67,0,0c159,0,318,0,477,0,0,73.67,0,147.33,0,221-1-6.53-1.92-13.08-3.02-19.59-3.31-19.68-8.9-38.73-17.22-56.83-13.77-29.95-32.1-56.74-57.22-78.44-8.92-7.7-17.98-15.35-27.67-22.03-20.96-14.45-43.82-25.34-68.46-31.69-14.95-3.86-30.34-6.78-45.7-8.08-14.13-1.2-28.5.21-42.75.69-16.95.56-33.27,4.71-49.3,9.78-23,7.28-44.28,18.02-64.16,31.85-18.82,13.09-35.34,28.5-49.69,46.2-14.27,17.59-25.55,37.07-34.22,58.02-7.75,18.75-13.16,38.14-15.64,58.32-.49,3.96-1.3,7.88-1.96,11.81Z" style="fill: #fff; stroke-width: 0px;"/>
  <path d="M477,264v221c-159,0-318,0-477,0C0,411.33,0,337.67,0,264c.33.84.85,1.66.97,2.53,1.11,8.27,1.54,16.69,3.32,24.81,5.55,25.29,14.59,49.28,27.68,71.74,14.9,25.57,33.91,47.61,56.88,66.09,17.49,14.07,36.78,25.3,57.57,34.03,23.54,9.88,48.03,16.12,73.37,17.5,17.27.94,34.76-.33,52.04-1.85,22.22-1.96,43.39-8.64,63.7-17.78,30.25-13.61,56.87-32.26,79.13-57.08,10.32-11.51,19.75-23.55,27.8-36.77,17.19-28.25,28.4-58.55,32.6-91.41.51-3.96,1.3-7.88,1.96-11.81Z" style="fill: #fff; stroke-width: 0px;"/>
  <path d="M477,264c-.66,3.94-1.46,7.86-1.96,11.81-4.19,32.85-15.41,63.16-32.6,91.41-8.04,13.22-17.48,25.26-27.8,36.77-22.26,24.82-48.88,43.46-79.13,57.08-20.31,9.14-41.47,15.82-63.7,17.78-17.28,1.52-34.77,2.79-52.04,1.85-25.33-1.38-49.83-7.62-73.37-17.5-20.79-8.73-40.08-19.95-57.57-34.03-22.97-18.48-41.98-40.52-56.88-66.09-13.09-22.46-22.12-46.45-27.68-71.74-1.78-8.12-2.21-16.53-3.32-24.81-.12-.87-.63-1.68-.97-2.53,0-14.33,0-28.67,0-43,.66-3.94,1.47-7.86,1.96-11.81,2.48-20.18,7.88-39.56,15.64-58.32,8.66-20.95,19.95-40.44,34.22-58.02,14.35-17.7,30.87-33.1,49.69-46.2,19.88-13.83,41.15-24.57,64.16-31.85,16.04-5.07,32.35-9.22,49.3-9.78,14.25-.47,28.62-1.88,42.75-.69,15.36,1.3,30.75,4.23,45.7,8.08,24.64,6.36,47.5,17.24,68.46,31.69,9.69,6.68,18.75,14.33,27.67,22.03,25.12,21.69,43.45,48.48,57.22,78.44,8.32,18.1,13.91,37.16,17.22,56.83,1.1,6.52,2.02,13.06,3.02,19.59v43ZM194.41,27.16c.89,3.8.67,6.08-3.94,5.98-9.81-.2-19.64-.45-29.43.06-12.08.63-24.07-1.46-35.87,5.72-24.16,14.7-45.72,32.02-64.13,53.44-14.94,17.38-26.77,36.6-36.05,57.51-10.56,23.8-16.92,48.76-18.74,74.58-1.39,19.77-1.11,39.77,2.89,59.34,5.11,25.01,13.12,48.99,25.8,71.38,14.06,24.84,31.86,46.37,53.53,64.89,17.3,14.78,36.35,26.6,57.09,35.82,23.93,10.63,49.05,17.18,75.06,18.83,18.58,1.18,37.29.84,55.89-2.53,22.46-4.07,44.02-10.56,64.41-20.72,17.17-8.55,33.16-18.92,47.78-31.5,12.79-11,24.65-22.89,34.79-36.26,11.35-14.96,20.98-31.06,28.51-48.4,10.44-24.02,16.83-49.1,18.76-75.09.99-13.33-.28-26.85-.79-40.28-.65-16.95-4.46-33.43-10.2-49.2-5.6-15.41-12.07-30.74-20.19-44.94-7.66-13.39-17.15-25.97-27.27-37.67-18-20.8-39.55-37.59-63.72-50.86-4.9-2.69-9.85-4.6-15.84-4.43-15.65.46-31.32.14-46.99.17-2.29,0-4.41.1-4.45-3.15-.04-3.29,2.17-3.22,4.41-3.22,10.83,0,21.66,0,32.5-.02,1.54,0,3.09-.18,4.63-.27-12.04-4.74-23.52-12.06-37.42-5.58-.5-2.68-.84-4.49-1.46-7.78-13.33-.96-27.54-2.17-41.77-2.95-14.89-.82-29.68.54-44.36,3.03-1.79.3-4.43.01-4.12,3.69.24,2.79-2.16,4.07-4.79,2.96-6.61-2.79-13.07-2.13-19.56.29-5.52,2.06-11.07,4.04-16.61,6.06.09.36.18.72.27,1.08h41.38Z" style="stroke-width: 0px;"/>
  <path d="M194.41,27.16h-41.38c-.09-.36-.18-.72-.27-1.08,5.54-2.02,11.09-4,16.61-6.06,6.5-2.42,12.95-3.08,19.56-.29,2.63,1.11,5.03-.17,4.79-2.96-.31-3.67,2.33-3.38,4.12-3.69,14.68-2.5,29.47-3.85,44.36-3.03,14.23.78,28.44,1.99,41.77,2.95.62,3.28.96,5.1,1.46,7.78,13.9-6.48,25.38.84,37.42,5.58-1.54.09-3.09.27-4.63.27-10.83.02-21.66.01-32.5.02-2.25,0-4.45-.07-4.41,3.22.04,3.24,2.16,3.15,4.45,3.15,15.66-.03,31.34.29,46.99-.17,5.99-.18,10.94,1.73,15.84,4.43,24.17,13.28,45.71,30.06,63.72,50.86,10.12,11.7,19.61,24.28,27.27,37.67,8.12,14.2,14.59,29.53,20.19,44.94,5.73,15.77,9.55,32.25,10.2,49.2.51,13.42,1.79,26.94.79,40.28-1.94,25.99-8.33,51.07-18.76,75.09-7.53,17.33-17.17,33.43-28.51,48.4-10.14,13.37-22,25.26-34.79,36.26-14.62,12.58-30.61,22.95-47.78,31.5-20.39,10.16-41.95,16.65-64.41,20.72-18.6,3.37-37.32,3.71-55.89,2.53-26.01-1.65-51.13-8.19-75.06-18.83-20.74-9.22-39.79-21.04-57.09-35.82-21.68-18.52-39.48-40.05-53.53-64.89-12.67-22.39-20.69-46.37-25.8-71.38-4-19.57-4.28-39.58-2.89-59.34,1.82-25.82,8.18-50.79,18.74-74.58,9.28-20.91,21.11-40.13,36.05-57.51,18.42-21.42,39.97-38.75,64.13-53.44,11.8-7.18,23.79-5.09,35.87-5.72,9.78-.51,19.62-.26,29.43-.06,4.61.09,4.82-2.18,3.94-5.98ZM78.98,390.2c.53.09,1.05.19,1.58.28.83-6.06,1.31-12.19,2.55-18.17,4.6-22.29,19.79-37.56,41.37-41.25,16.55-2.83,33.29-2.5,49.7.56,12.75,2.38,25.14,6.64,38.01,10.15.13-.38.6-1.6.99-2.85,7.02-22.45,13.85-44.96,21.18-67.31,1.5-4.59.95-7.47-2.27-10.92-8.6-9.2-16.82-18.76-25.29-28.29,6.96-7.57,13.74-14.68,20.14-22.11,1.64-1.9,2.88-4.85,2.91-7.33.46-32.81.67-65.63.93-98.45.01-1.53-.15-3.06-.23-4.59-1.12.87-1.35,1.74-1.42,2.61-2.41,30.19-4.89,60.38-7.14,90.58-.48,6.39-2.34,11.53-7.28,16.07-6.72,6.19-12.64,13.25-18.88,19.96-1.08,1.17-2.03,2.46-3.06,3.7,7,8.15,13.27,16.43,20.56,23.68,7,6.96,9.49,14.91,8.65,24.31-.79,8.83-2.98,17.18-8.58,24.47-23.15-10.64-47.12-15.17-72.09-14.33-25.65.86-52.3,22.07-57.02,47.25-3.19,17.06-3.65,34.63-5.32,51.97ZM264.43,343.23c25.71-12.64,52.45-15.03,79.87-13.24,21.71,1.41,38.74,13.9,45.51,34.55,2.71,8.26,3.67,17.09,5.24,24.69-.01.15.21-.82.14-1.78-1.06-15.43-1.37-30.96-3.42-46.26-3.29-24.52-30.09-48.85-54.16-50.11-19.95-1.04-39.53,1.3-58.48,7.84-5.58,1.92-11.06,4.12-16.58,6.18-5.82-8.56-8.19-17.8-8.21-27.62-.01-6.9,1.37-13.13,6.69-18.62,7.95-8.21,14.94-17.35,22.49-26.27-8.73-9.39-17.29-18.48-25.65-27.75-1.42-1.58-2.58-3.93-2.76-6.02-2.25-26.04-4.29-52.09-6.39-78.14-.54-6.74-1.14-13.47-1.72-20.2-.85,1.02-.95,1.99-.95,2.97.07,33.5.1,66.99.32,100.49.01,1.9,1.08,4.16,2.37,5.63,6.68,7.62,13.6,15.04,20.7,22.82-6.17,7.06-12.18,13.93-18.18,20.8-3.5,4.01-8.95,7.61-9.93,12.17-1.01,4.71,2.18,10.4,3.78,15.59,6.33,20.58,12.75,41.13,19.33,62.3ZM389.78,164.99c-18.67,14.45-30.65,32.79-39.28,53.52-9.72,23.35-6.79,44.98,8.53,65.21,9.63,12.72,22.82,20.07,36.92,26.3,3.95,1.75,8.02,3.23,12.03,4.84-1.19-1.76-2.76-2.58-4.35-3.37-21.49-10.68-34.02-34-30.91-57.65,2.38-18.16,10.39-33.86,21.8-47.84,7.55-9.25,15.72-17.98,23.61-26.93-.62-.74-.89-1.16-1.25-1.47-18.62-15.35-37.21-30.74-55.96-45.93-1.27-1.03-4.01-1.2-5.67-.63-9.99,3.44-19.86,7.21-29.98,10.95-2.32-8.2-4.57-16.11-6.64-23.42-9.23,0-17.91.55-26.49-.15-9.27-.76-13.17,6.03-18.32,11.53,13.57-2.73,27.13-5.47,40.64-8.19,3.35,9.41,6.48,18.21,9.67,27.16,11.12-5.12,21.66-9.98,32.34-14.9,11,10.23,21.94,20.4,33.32,30.98ZM57.86,178.79c5.54,6.4,10.59,12.8,16.23,18.64,12.1,12.53,21.06,26.89,26.46,43.44,8.76,26.84-.68,53.73-23.99,68.31-2.83,1.77-5.87,3.22-8.82,4.82,17.51-6.02,34.75-12.61,46.92-27.47,12.94-15.79,19.63-33.5,15.08-54.18-3.22-14.65-9.71-28.02-18.36-40.04-7.11-9.89-15.71-18.72-23.97-28.4,10.19-9.49,21.12-19.68,32.08-29.89,10.72,4.95,21.26,9.82,32.23,14.89,3.27-9.13,6.47-18.07,9.72-27.17,13.77,2.79,27.09,5.5,40.41,8.2-3.38-4.34-6.96-9.96-11.16-10.48-10.95-1.35-22.17-.45-33.6-.45-2.02,7.16-4.25,15.04-6.49,22.99-10.25-3.8-20-7.57-29.89-10.93-1.73-.59-4.55-.14-6.01.97-6.76,5.13-13.23,10.63-19.78,16.04-12.29,10.16-24.55,20.34-37.07,30.71ZM240.83,115c0-12.31.02-24.63-.02-36.94,0-2.16.78-5.41-2.99-4.67-1.14.22-2.53,3-2.54,4.62-.16,24.96-.12,49.92-.1,74.88,0,2.04-.73,4.62,2.79,4.64,3.51.02,2.84-2.53,2.84-4.59.03-12.65.01-25.29.01-37.94ZM349.78,91.21c-24.47-14.13-48.52-28.03-72.89-42.11-1.04,2.02-1.75,3.4-2.57,4.99,24.38,14.07,48.34,27.89,72.63,41.9,1.03-1.73,1.82-3.08,2.84-4.79ZM129.24,95.93c24.42-14.11,48.47-28.01,72.32-41.78-1.24-4.55-3.14-4.83-6.42-2.9-16.89,9.91-33.9,19.62-50.84,29.43-5.97,3.46-11.89,7.01-18.18,10.72,1.23,1.78,2.13,3.08,3.12,4.53ZM206.68,65.34c-2.34-2.54-3.67-4.83-6.77-1.69-16,16.19-32.13,32.26-48.27,48.31-1.74,1.73-2.48,3.47-.13,4.77,1.01.56,3.35.16,4.23-.68,8.09-7.79,15.99-15.78,23.93-23.71,8.89-8.87,17.76-17.76,27-26.99ZM190.89,39.51c-23.89,6.4-47.92,12.85-72.38,19.4,1.02,2.32,1.64,3.74,2.26,5.14,1.09-.14,1.76-.15,2.39-.32,21.73-5.85,43.42-11.9,65.22-17.45,4.72-1.2,5.67-2.56,2.51-6.77ZM208.34,148.63c.43-.59.86-.95.98-1.4,6.15-22.58,12.32-45.16,18.27-67.8.29-1.11-1.34-2.72-2.07-4.09-1.12,1.02-2.93,1.85-3.27,3.08-4.53,16.3-8.85,32.67-13.22,49.01-1.75,6.53-3.48,13.06-5.31,19.9,1.91.54,3.27.92,4.62,1.3ZM271.76,147.5c.05-1.03.21-1.56.09-2.02-6.03-22.6-12.05-45.21-18.24-67.77-.27-.99-2.19-1.54-3.34-2.29-.64,1.42-2.11,3.06-1.8,4.24,5.9,22.47,12.01,44.89,18.11,67.31.16.59.69,1.08,1.11,1.71,1.36-.4,2.6-.76,4.07-1.19ZM284.63,39.54c-.61,1.96-1.06,3.42-1.63,5.26,24.36,6.53,48.18,12.91,72.34,19.38.56-1.86,1-3.33,1.58-5.28-24.28-6.5-48.11-12.89-72.29-19.36ZM270.26,64.38c18,18.13,35.4,35.66,53,53.4.86-.94,1.83-1.99,2.49-2.71-17.73-17.73-35.21-35.2-53.24-53.23-.72.82-1.67,1.88-2.25,2.54ZM289.96,117.71c.35-.46.7-.92,1.05-1.39-9.59-16.61-19.17-33.22-29-50.25-1.75,1.21-3.01,2.08-4.47,3.09,8.93,15.42,17.48,30.42,26.37,45.22,1.03,1.71,3.99,2.25,6.05,3.33ZM213.98,66.1c-9.8,17-19.24,33.36-28.82,49.98,4.79.74,6.97-1.09,8.9-4.54,7.91-14.14,16.14-28.09,24.41-42.4-1.53-1.04-2.7-1.83-4.49-3.04ZM351.15,98.47c13.34,7.68,26.18,15.08,39.33,22.65.98-1.77,1.73-3.13,2.68-4.84-13.22-7.64-26.06-15.07-39.14-22.62-1,1.67-1.73,2.9-2.87,4.81ZM85.73,120.93c13.1-7.56,25.84-14.92,38.99-22.51-1.09-1.77-1.9-3.08-2.85-4.62-13.13,7.6-25.89,14.97-39,22.56,1.06,1.68,1.89,3,2.87,4.56ZM301.84,145.91c7.77,13.41,15.14,26.13,22.68,39.15,1.72-1.14,3.03-2,4.49-2.97-7.54-13.05-14.9-25.77-22.48-38.89-1.64.94-2.99,1.72-4.7,2.71ZM169.51,143.12c-7.7,13.32-15.06,26.07-22.6,39.13,1.68.96,3.04,1.73,4.68,2.67,7.59-13.13,14.97-25.9,22.5-38.91-1.55-.97-2.75-1.73-4.57-2.88ZM176.7,141.47c2.6-4.57,4.87-8.56,7.18-12.63-6.02-1.7-7.49-.35-11.4,10.26,1.21.68,2.47,1.39,4.22,2.37ZM304.96,138.25c-5.46-2.55-3.43-12.05-13.04-9.76,2.53,4.46,4.85,8.54,7.39,13.01,1.73-1,3.08-1.78,5.65-3.26Z" style="fill: #fff; stroke-width: 0px;"/>
  <path d="M78.98,390.2c1.68-17.34,2.13-34.91,5.32-51.97,4.71-25.18,31.36-46.39,57.02-47.25,24.97-.84,48.94,3.69,72.09,14.33,5.6-7.29,7.79-15.64,8.58-24.47.84-9.4-1.65-17.35-8.65-24.31-7.29-7.25-13.56-15.52-20.56-23.68,1.02-1.25,1.97-2.54,3.06-3.7,6.24-6.71,12.15-13.78,18.88-19.96,4.94-4.54,6.8-9.68,7.28-16.07,2.25-30.2,4.73-60.39,7.14-90.58.07-.88.3-1.75,1.42-2.61.08,1.53.25,3.06.23,4.59-.26,32.82-.47,65.63-.93,98.45-.03,2.49-1.27,5.43-2.91,7.33-6.4,7.44-13.19,14.54-20.14,22.11,8.47,9.53,16.69,19.09,25.29,28.29,3.22,3.45,3.77,6.33,2.27,10.92-7.33,22.35-14.16,44.86-21.18,67.31-.39,1.25-.86,2.47-.99,2.85-12.87-3.51-25.26-7.77-38.01-10.15-16.41-3.06-33.15-3.39-49.7-.56-21.58,3.68-36.77,18.96-41.37,41.25-1.23,5.98-1.72,12.11-2.55,18.17-.53-.09-1.05-.19-1.58-.28Z" style="stroke-width: 0px;"/>
  <path d="M264.43,343.23c-6.58-21.17-13-41.72-19.33-62.3-1.6-5.19-4.79-10.88-3.78-15.59.98-4.56,6.43-8.16,9.93-12.17,6-6.87,12.01-13.74,18.18-20.8-7.1-7.78-14.02-15.2-20.7-22.82-1.29-1.47-2.36-3.73-2.37-5.63-.22-33.5-.25-66.99-.32-100.49,0-.97.09-1.94.95-2.97.57,6.73,1.17,13.47,1.72,20.2,2.11,26.05,4.14,52.11,6.39,78.14.18,2.09,1.34,4.44,2.76,6.02,8.35,9.27,16.92,18.36,25.65,27.75-7.55,8.93-14.54,18.07-22.49,26.27-5.31,5.48-6.7,11.72-6.69,18.62.02,9.81,2.39,19.05,8.21,27.62,5.51-2.06,11-4.25,16.58-6.18,18.96-6.54,38.53-8.88,58.48-7.84,24.07,1.26,50.87,25.6,54.16,50.11,2.05,15.3,2.36,30.83,3.42,46.26.07.96-.16,1.93-.14,1.78-1.56-7.6-2.53-16.43-5.24-24.69-6.77-20.66-23.8-33.14-45.51-34.55-27.42-1.78-54.16.61-79.87,13.24Z" style="stroke-width: 0px;"/>
  <path d="M389.78,164.99c-11.38-10.58-22.31-20.75-33.32-30.98-10.68,4.92-21.22,9.78-32.34,14.9-3.19-8.95-6.32-17.76-9.67-27.16-13.51,2.72-27.07,5.46-40.64,8.19,5.15-5.5,9.05-12.29,18.32-11.53,8.58.7,17.26.15,26.49.15,2.07,7.31,4.32,15.22,6.64,23.42,10.13-3.74,20-7.51,29.98-10.95,1.66-.57,4.4-.4,5.67.63,18.75,15.19,37.34,30.57,55.96,45.93.37.3.63.73,1.25,1.47-7.89,8.95-16.07,17.69-23.61,26.93-11.41,13.98-19.42,29.68-21.8,47.84-3.1,23.66,9.43,46.98,30.91,57.65,1.59.79,3.16,1.62,4.35,3.37-4.01-1.6-8.08-3.09-12.03-4.84-14.1-6.23-27.28-13.58-36.92-26.3-15.32-20.24-18.24-41.86-8.53-65.21,8.63-20.73,20.61-39.07,39.28-53.52Z" style="stroke-width: 0px;"/>
  <path d="M57.86,178.79c12.52-10.37,24.78-20.55,37.07-30.71,6.54-5.41,13.02-10.92,19.78-16.04,1.46-1.11,4.27-1.56,6.01-.97,9.89,3.36,19.64,7.13,29.89,10.93,2.24-7.95,4.47-15.83,6.49-22.99,11.44,0,22.66-.89,33.6.45,4.21.52,7.79,6.13,11.16,10.48-13.32-2.7-26.64-5.41-40.41-8.2-3.25,9.09-6.46,18.04-9.72,27.17-10.97-5.07-21.51-9.93-32.23-14.89-10.96,10.21-21.89,20.39-32.08,29.89,8.26,9.68,16.86,18.51,23.97,28.4,8.65,12.03,15.13,25.4,18.36,40.04,4.55,20.68-2.14,38.38-15.08,54.18-12.17,14.86-29.41,21.45-46.92,27.47,2.94-1.6,5.98-3.04,8.82-4.82,23.31-14.58,32.74-41.47,23.99-68.31-5.4-16.55-14.36-30.91-26.46-43.44-5.64-5.84-10.69-12.24-16.23-18.64Z" style="stroke-width: 0px;"/>
  <path d="M240.83,115c0,12.65.01,25.29-.01,37.94,0,2.06.66,4.61-2.84,4.59-3.52-.02-2.79-2.6-2.79-4.64-.02-24.96-.06-49.92.1-74.88.01-1.62,1.4-4.4,2.54-4.62,3.78-.74,2.98,2.5,2.99,4.67.05,12.31.02,24.63.02,36.94Z" style="stroke-width: 0px;"/>
  <path d="M349.78,91.21c-1.01,1.71-1.81,3.06-2.84,4.79-24.29-14.02-48.25-27.84-72.63-41.9.82-1.59,1.53-2.97,2.57-4.99,24.37,14.08,48.43,27.97,72.89,42.11Z" style="stroke-width: 0px;"/>
  <path d="M129.24,95.93c-1-1.44-1.89-2.74-3.12-4.53,6.29-3.71,12.21-7.27,18.18-10.72,16.95-9.81,33.95-19.52,50.84-29.43,3.28-1.93,5.18-1.66,6.42,2.9-23.85,13.78-47.9,27.67-72.32,41.78Z" style="stroke-width: 0px;"/>
  <path d="M206.68,65.34c-9.24,9.23-18.11,18.12-27,26.99-7.95,7.94-15.85,15.92-23.93,23.71-.88.85-3.22,1.25-4.23.68-2.35-1.31-1.61-3.04.13-4.77,16.14-16.06,32.26-32.12,48.27-48.31,3.1-3.14,4.43-.85,6.77,1.69Z" style="stroke-width: 0px;"/>
  <path d="M190.89,39.51c3.16,4.21,2.21,5.57-2.51,6.77-21.81,5.56-43.49,11.6-65.22,17.45-.63.17-1.3.18-2.39.32-.62-1.4-1.24-2.82-2.26-5.14,24.46-6.56,48.5-13,72.38-19.4Z" style="stroke-width: 0px;"/>
  <path d="M208.34,148.63c-1.34-.38-2.7-.76-4.62-1.3,1.82-6.84,3.56-13.37,5.31-19.9,4.37-16.35,8.7-32.71,13.22-49.01.34-1.23,2.14-2.06,3.27-3.08.73,1.38,2.36,2.99,2.07,4.09-5.95,22.64-12.12,45.22-18.27,67.8-.12.44-.55.8-.98,1.4Z" style="stroke-width: 0px;"/>
  <path d="M271.76,147.5c-1.47.43-2.71.79-4.07,1.19-.42-.63-.95-1.12-1.11-1.71-6.1-22.42-12.21-44.84-18.11-67.31-.31-1.17,1.16-2.81,1.8-4.24,1.15.75,3.06,1.3,3.34,2.29,6.19,22.56,12.21,45.16,18.24,67.77.12.46-.03.99-.09,2.02Z" style="stroke-width: 0px;"/>
  <path d="M284.63,39.54c24.18,6.48,48.01,12.86,72.29,19.36-.58,1.94-1.03,3.42-1.58,5.28-24.15-6.47-47.98-12.85-72.34-19.38.57-1.84,1.02-3.3,1.63-5.26Z" style="stroke-width: 0px;"/>
  <path d="M270.26,64.38c.58-.66,1.53-1.73,2.25-2.54,18.03,18.03,35.51,35.5,53.24,53.23-.66.72-1.63,1.77-2.49,2.71-17.6-17.73-35-35.26-53-53.4Z" style="stroke-width: 0px;"/>
  <path d="M289.96,117.71c-2.06-1.08-5.03-1.62-6.05-3.33-8.9-14.8-17.45-29.8-26.37-45.22,1.47-1.01,2.72-1.88,4.47-3.09,9.83,17.03,19.42,33.64,29,50.25-.35.46-.7.92-1.05,1.39Z" style="stroke-width: 0px;"/>
  <path d="M213.98,66.1c1.79,1.21,2.96,2.01,4.49,3.04-8.27,14.3-16.5,28.26-24.41,42.4-1.93,3.45-4.11,5.29-8.9,4.54,9.58-16.62,19.01-32.98,28.82-49.98Z" style="stroke-width: 0px;"/>
  <path d="M351.15,98.47c1.14-1.92,1.87-3.14,2.87-4.81,13.07,7.56,25.91,14.98,39.14,22.62-.94,1.7-1.7,3.07-2.68,4.84-13.15-7.57-25.99-14.97-39.33-22.65Z" style="stroke-width: 0px;"/>
  <path d="M85.73,120.93c-.98-1.56-1.81-2.88-2.87-4.56,13.12-7.59,25.87-14.97,39-22.56.95,1.54,1.76,2.85,2.85,4.62-13.15,7.59-25.89,14.95-38.99,22.51Z" style="stroke-width: 0px;"/>
  <path d="M301.84,145.91c1.71-.98,3.06-1.76,4.7-2.71,7.58,13.11,14.93,25.83,22.48,38.89-1.46.97-2.78,1.83-4.49,2.97-7.54-13.02-14.91-25.74-22.68-39.15Z" style="stroke-width: 0px;"/>
  <path d="M169.51,143.12c1.82,1.15,3.03,1.91,4.57,2.88-7.52,13.02-14.9,25.78-22.5,38.91-1.64-.94-3-1.71-4.68-2.67,7.54-13.05,14.91-25.8,22.6-39.13Z" style="stroke-width: 0px;"/>
  <path d="M176.7,141.47c-1.75-.98-3.01-1.69-4.22-2.37,3.92-10.61,5.38-11.96,11.4-10.26-2.31,4.07-4.59,8.06-7.18,12.63Z" style="stroke-width: 0px;"/>
  <path d="M304.96,138.25c-2.57,1.48-3.92,2.26-5.65,3.26-2.54-4.47-4.86-8.55-7.39-13.01,9.61-2.3,7.58,7.21,13.04,9.76Z" style="stroke-width: 0px;"/>
</svg>