<svg width="133" height="457" viewBox="0 0 133 457" fill="none" xmlns="http://www.w3.org/2000/svg">
<path d="M131.641 228.5C131.641 291.565 124.257 348.641 112.33 389.935C106.366 410.585 99.2727 427.26 91.4187 438.761C83.5536 450.279 75.003 456.5 66.1415 456.5C57.28 456.5 48.7294 450.279 40.8642 438.761C33.0102 427.26 25.9174 410.585 19.9528 389.935C8.02549 348.641 0.641479 291.565 0.641479 228.5C0.641479 165.435 8.02549 108.359 19.9528 67.0648C25.9174 46.4146 33.0102 29.7396 40.8642 18.2386C48.7294 6.72125 57.28 0.5 66.1415 0.5C75.003 0.5 83.5536 6.72125 91.4187 18.2386C99.2727 29.7396 106.366 46.4146 112.33 67.0648C124.257 108.359 131.641 165.435 131.641 228.5Z" stroke="white"/>
<circle cx="21.6415" cy="62.5" r="4" stroke="white"/>
</svg>
