<svg width="452" height="93" viewBox="0 0 452 93" fill="none" xmlns="http://www.w3.org/2000/svg">
<path d="M221.506 76.0922C159.27 66.5114 103.455 54.4656 63.527 42.7383C43.5596 36.8737 27.585 31.0943 16.7712 25.7507C11.361 23.0772 7.27043 20.5263 4.61929 18.1462C1.94553 15.7459 0.855206 13.63 1.13476 11.8141C1.41431 9.99814 3.09053 8.30814 6.36241 6.8231C9.60662 5.35062 14.275 4.14803 20.2388 3.22554C32.159 1.38169 49.1322 0.674385 69.939 1.08665C111.545 1.91102 168.399 7.20992 230.635 16.7907C292.871 26.3715 348.687 38.4173 388.614 50.1446C408.582 56.0092 424.556 61.7886 435.37 67.1322C440.781 69.8057 444.871 72.3566 447.522 74.7367C450.196 77.137 451.286 79.2529 451.007 81.0688C450.727 82.8848 449.051 84.5748 445.779 86.0598C442.535 87.5323 437.866 88.7349 431.903 89.6574C419.982 91.5012 403.009 92.2085 382.202 91.7963C340.596 90.9719 283.742 85.673 221.506 76.0922Z" stroke="white"/>
</svg>
