<svg width="461" height="458" viewBox="0 0 461 458" fill="none" xmlns="http://www.w3.org/2000/svg">
<path d="M225.506 258.092C163.27 248.511 107.455 236.466 67.527 224.738C47.5596 218.874 31.585 213.094 20.7712 207.751C15.361 205.077 11.2704 202.526 8.61929 200.146C5.94553 197.746 4.85521 195.63 5.13476 193.814C5.41431 191.998 7.09053 190.308 10.3624 188.823C13.6066 187.351 18.275 186.148 24.2388 185.226C36.159 183.382 53.1322 182.674 73.939 183.087C115.545 183.911 172.399 189.21 234.635 198.791C296.871 208.372 352.687 220.417 392.614 232.145C412.582 238.009 428.556 243.789 439.37 249.132C444.781 251.806 448.871 254.357 451.522 256.737C454.196 259.137 455.286 261.253 455.007 263.069C454.727 264.885 453.051 266.575 449.779 268.06C446.535 269.532 441.866 270.735 435.903 271.657C423.982 273.501 407.009 274.209 386.202 273.796C344.596 272.972 287.742 267.673 225.506 258.092Z" stroke="white"/>
<circle cx="229.641" cy="228.5" r="228" stroke="white"/>
<circle cx="229.641" cy="228.5" r="32" stroke="white"/>
<line x1="1.14148" y1="228.5" x2="458.141" y2="228.5" stroke="white"/>
<circle cx="229.641" cy="228.5" r="41" stroke="white"/>
<circle cx="229.641" cy="123.5" r="15" stroke="white"/>
<line x1="230.141" y1="0.5" x2="230.141" y2="457.5" stroke="white"/>
<circle cx="230.641" cy="228.5" r="4" stroke="white"/>
</svg>
