<svg width="361" height="351" viewBox="0 0 361 351" fill="none" xmlns="http://www.w3.org/2000/svg">
<circle cx="172.641" cy="172.5" r="172" stroke="white"/>
<circle cx="288.641" cy="291.5" r="21" stroke="white"/>
<circle cx="300.641" cy="59.5" r="32" stroke="white"/>
<circle cx="301.641" cy="58.5" r="7" stroke="white"/>
<circle cx="46.6415" cy="309.5" r="41" stroke="white"/>
<circle cx="79.6415" cy="71.5" r="34" stroke="white"/>
<circle cx="106.641" cy="113.5" r="15" stroke="white"/>
<circle cx="251.141" cy="226" r="19.5" stroke="white"/>
<line x1="136.854" y1="153.409" x2="28.8537" y2="77.4089" stroke="white"/>
<line x1="344.854" y1="332.409" x2="210.854" y2="238.409" stroke="white"/>
<line x1="360.459" y1="10.3861" x2="236.459" y2="112.386" stroke="white"/>
<line x1="339.282" y1="128.48" x2="213.282" y2="165.48" stroke="white"/>
<circle cx="226.641" cy="161.5" r="4" stroke="white"/>
<circle cx="293.641" cy="296.5" r="4" stroke="white"/>
<circle cx="31.6415" cy="271.5" r="4" stroke="white"/>
<line x1="266.769" y1="237.667" x2="342.769" y2="152.667" stroke="white"/>
<line x1="115.786" y1="334.648" x2="237.786" y2="211.648" stroke="white"/>
<line x1="35.7009" y1="269.764" x2="108.701" y2="133.764" stroke="white"/>
<circle cx="125.141" cy="332" r="10.5" stroke="white"/>
<line x1="101.754" y1="97.3157" x2="22.7538" y2="0.315746" stroke="white"/>
</svg>
