<?xml version="1.0" encoding="UTF-8"?>
<svg id="Calque_1" data-name="Calque 1" xmlns="http://www.w3.org/2000/svg" viewBox="0 0 477 477.15">
  <path d="M477,260.14c-.66,3.94-1.46,7.86-1.96,11.81-4.19,32.85-15.41,63.16-32.6,91.41-8.04,13.22-17.48,25.26-27.8,36.77-22.26,24.82-48.88,43.46-79.13,57.08-20.31,9.14-41.47,15.82-63.7,17.78-17.28,1.52-34.77,2.79-52.04,1.85-25.33-1.38-49.83-7.62-73.37-17.5-20.79-8.73-40.08-19.95-57.57-34.03-22.97-18.48-41.98-40.52-56.88-66.09-13.09-22.46-22.12-46.45-27.68-71.74-1.78-8.12-2.21-16.53-3.32-24.81-.12-.87-.63-1.68-.97-2.53,0-14.33,0-28.67,0-43,.66-3.94,1.47-7.86,1.96-11.81,2.48-20.18,7.88-39.56,15.64-58.32,8.66-20.95,19.95-40.44,34.22-58.02,14.35-17.7,30.87-33.1,49.69-46.2,19.88-13.83,41.15-24.57,64.16-31.85,16.04-5.07,32.35-9.22,49.3-9.78,14.25-.47,28.62-1.88,42.75-.69,15.36,1.3,30.75,4.23,45.7,8.08,24.64,6.36,47.5,17.24,68.46,31.69,9.69,6.68,18.75,14.33,27.67,22.03,25.12,21.69,43.45,48.48,57.22,78.44,8.32,18.1,13.91,37.16,17.22,56.83,1.1,6.52,2.02,13.06,3.02,19.59v43ZM194.53,29.37c-11.09,0-21.55-.35-31.99.09-12.58.53-25.07-1.85-37.36,5.61-24.17,14.68-45.72,32.01-64.14,53.43-14.94,17.38-26.77,36.6-36.05,57.51-10.56,23.8-17.03,48.76-18.73,74.58-1.48,22.54-.56,45.16,4.64,67.45,5.56,23.84,13.94,46.52,26.35,67.59,13.68,23.22,30.96,43.44,51.55,60.95,13.04,11.09,27.17,20.46,42.18,28.47,27.85,14.87,57.79,23.43,89.13,25.82,19.92,1.52,40.11,1.13,59.84-2.9,25-5.11,49-13.13,71.37-25.83,24.81-14.08,46.31-31.93,64.89-53.57,11.05-12.87,20.36-26.86,28.34-41.69,15.11-28.1,23.87-58.33,26.19-90.03,1.59-21.73.93-43.67-4-65.1-5.38-23.43-13.16-45.97-25.34-66.92-8.25-14.2-17.23-27.87-28.32-39.91-14.54-15.79-30.4-30.12-48.53-41.96-13.94-9.1-27.82-15.98-45.33-14.08-12.17,1.32-24.59.25-37.39.25v-6.52h40.99c-12.01-4.86-23.5-12.18-37.4-5.7-.5-2.68-.84-4.49-1.26-6.71-29.78-5.7-60.15-5.84-89.85-.26-.69,2.57-1.19,4.45-1.89,7.09-14.97-7.1-26.88,1.08-39.4,6.26h41.5v6.07Z" style="fill: #fff; stroke-width: 0px;"/>
  <path d="M78.98,386.33c1.68-17.34,2.13-34.91,5.32-51.97,4.71-25.18,31.36-46.39,57.02-47.25,24.97-.84,48.94,3.69,72.09,14.33,5.6-7.29,7.79-15.64,8.58-24.47.84-9.4-1.65-17.35-8.65-24.31-7.29-7.25-13.56-15.52-20.72-23.86,9.38-10.05,18.76-20.1,28.4-30.43,2.82-33.89,5.67-68.09,8.51-102.28l.8.04v106.78c-7.94,8.65-15.58,16.97-23.51,25.61,9.76,11.04,19.42,21.97,29.31,33.17-8.02,25.68-16.05,51.4-23.81,76.26-13.01-3.55-25.41-7.81-38.15-10.19-16.41-3.06-33.15-3.39-49.7-.56-21.58,3.68-36.77,18.96-41.37,41.25-1.23,5.98-1.72,12.11-2.55,18.17-.53-.09-1.05-.19-1.58-.28Z" style="fill: #fff; stroke-width: 0px;"/>
  <path d="M264.41,339.38c-8.13-26.23-16.07-51.86-24.07-77.68,9.67-11.03,19.3-22.01,29.09-33.18-7.89-8.65-15.5-17-23.18-25.43v-106.43c.24-.02.49-.04.73-.06,2.75,33.61,5.51,67.22,8.33,101.69,8.98,9.71,18.47,19.95,28.18,30.45-7.54,8.91-14.53,18.05-22.48,26.25-5.31,5.48-6.7,11.72-6.69,18.62.02,9.81,2.39,19.05,8.21,27.62,5.51-2.06,11-4.25,16.58-6.18,18.96-6.54,38.53-8.88,58.48-7.84,24.07,1.26,50.87,25.6,54.16,50.11,2.05,15.3,2.36,30.83,3.42,46.26.07.96-.16,1.93-.14,1.78-1.56-7.6-2.53-16.43-5.24-24.69-6.77-20.66-23.8-33.14-45.51-34.55-27.42-1.78-54.16.61-79.89,13.25Z" style="fill: #fff; stroke-width: 0px;"/>
  <path d="M389.78,161.13c-11.38-10.58-22.31-20.75-33.32-30.98-10.68,4.92-21.22,9.78-32.34,14.9-3.19-8.95-6.32-17.76-9.67-27.16-13.51,2.72-27.07,5.46-42.11,8.49,4.59-4.36,8.15-7.74,12.35-11.72h33.91c2.08,7.35,4.33,15.26,6.66,23.48,11.2-4.15,22.17-8.22,33.38-12.37,19.84,16.35,39.57,32.62,59.69,49.2-8.1,9.19-16.28,17.92-23.82,27.17-11.41,13.98-19.42,29.68-21.8,47.84-3.1,23.66,9.43,46.98,30.91,57.65,1.59.79,3.16,1.62,4.35,3.37-4.01-1.6-8.08-3.09-12.03-4.84-14.1-6.23-27.28-13.58-36.92-26.3-15.32-20.24-18.24-41.86-8.53-65.21,8.63-20.73,20.61-39.07,39.28-53.52Z" style="fill: #fff; stroke-width: 0px;"/>
  <path d="M57.85,174.91c19.84-16.4,39.43-32.6,59.43-49.14,10.86,4.03,21.86,8.11,33.32,12.36,2.24-7.95,4.47-15.83,6.65-23.55h33.57c4.17,3.88,7.78,7.24,11.39,10.6-.12.3-.24.59-.36.89-13.32-2.7-26.64-5.41-40.41-8.2-3.25,9.09-6.46,18.04-9.72,27.17-10.97-5.07-21.51-9.93-32.23-14.89-10.96,10.21-21.89,20.39-32.08,29.89,8.26,9.68,16.86,18.51,23.97,28.4,8.65,12.03,15.13,25.4,18.36,40.04,4.55,20.68-2.14,38.38-15.08,54.18-12.17,14.86-29.41,21.45-46.92,27.47,2.94-1.6,5.98-3.04,8.82-4.82,23.31-14.58,32.74-41.47,23.99-68.31-5.4-16.55-14.36-30.91-26.46-43.44-5.64-5.84-10.69-12.24-16.24-18.65Z" style="fill: #fff; stroke-width: 0px;"/>
  <path d="M240.48,153.27h-5.05v-83.6c1.63-.11,3.14-.21,5.05-.33v83.93Z" style="fill: #fff; stroke-width: 0px;"/>
  <path d="M349.78,87.35c-1.01,1.71-1.81,3.06-2.84,4.79-24.29-14.02-48.25-27.84-72.63-41.9.82-1.59,1.53-2.97,2.57-4.99,24.37,14.08,48.43,27.97,72.89,42.11Z" style="fill: #fff; stroke-width: 0px;"/>
  <path d="M129.24,92.07c-1-1.44-1.89-2.74-3.18-4.6,24.41-14.11,48.44-28,72.71-42.03,1.13,1.56,1.96,2.73,3.28,4.56-24.35,14.07-48.4,27.97-72.82,42.08Z" style="fill: #fff; stroke-width: 0px;"/>
  <path d="M203.15,58.06c.95.87,2,1.83,2.9,2.66-17.83,17.69-35.47,35.19-53.97,53.53-.55-.53-1.75-1.68-2.71-2.6,18.38-18.32,35.84-35.72,53.77-53.59Z" style="fill: #fff; stroke-width: 0px;"/>
  <path d="M191.29,35.54c.72,1.88,1.28,3.35,2.08,5.44-24.34,6.53-48.22,12.94-72.5,19.46-.72-1.65-1.35-3.06-2.37-5.39,24.46-6.56,48.5-13,72.79-19.51Z" style="fill: #fff; stroke-width: 0px;"/>
  <path d="M208.99,144.95c-2-.56-3.36-.94-5.29-1.49,6.46-24.14,12.82-47.96,19.35-72.34,1.73.42,3.21.78,5.36,1.31-6.53,24.38-12.94,48.32-19.42,72.52Z" style="fill: #fff; stroke-width: 0px;"/>
  <path d="M272.33,143.47c-2.04.6-3.29.96-5.29,1.54-6.47-24.1-12.89-48.04-19.39-72.28,1.79-.68,3.11-1.19,5.16-1.97,6.54,24.36,12.96,48.29,19.51,72.7Z" style="fill: #fff; stroke-width: 0px;"/>
  <path d="M284.63,35.68c24.18,6.48,48.01,12.86,72.29,19.36-.58,1.94-1.03,3.42-1.58,5.28-24.15-6.47-47.98-12.85-72.34-19.38.57-1.84,1.02-3.3,1.63-5.26Z" style="fill: #fff; stroke-width: 0px;"/>
  <path d="M270.26,60.52c.58-.66,1.53-1.73,2.25-2.54,18.03,18.03,35.51,35.5,53.24,53.23-.66.72-1.63,1.77-2.49,2.71-17.6-17.73-35-35.26-53-53.4Z" style="fill: #fff; stroke-width: 0px;"/>
  <path d="M291.28,112.94h-6.15c-9.04-15.6-18.18-31.38-27.59-47.63,1.47-1.02,2.73-1.88,4.48-3.09,9.83,17.03,19.42,33.64,29.27,50.72Z" style="fill: #fff; stroke-width: 0px;"/>
  <path d="M213.98,62.24c1.79,1.21,2.96,2.01,4.48,3.04-9.08,15.73-18.01,31.19-26.91,46.61-2,.25-3.76.46-6.67.82,9.86-17.11,19.3-33.47,29.1-50.47Z" style="fill: #fff; stroke-width: 0px;"/>
  <path d="M351.15,94.61c1.14-1.92,1.87-3.14,2.87-4.81,13.07,7.56,25.91,14.98,39.14,22.62-.94,1.7-1.7,3.07-2.68,4.84-13.15-7.57-25.99-14.97-39.33-22.65Z" style="fill: #fff; stroke-width: 0px;"/>
  <path d="M85.73,117.07c-.98-1.56-1.81-2.88-2.87-4.56,13.12-7.59,25.87-14.97,39-22.56.95,1.54,1.76,2.85,2.85,4.62-13.15,7.59-25.89,14.95-38.99,22.51Z" style="fill: #fff; stroke-width: 0px;"/>
  <path d="M301.84,142.05c1.71-.98,3.06-1.76,4.7-2.71,7.58,13.11,14.93,25.83,22.48,38.89-1.46.97-2.78,1.83-4.49,2.97-7.54-13.02-14.91-25.74-22.68-39.15Z" style="fill: #fff; stroke-width: 0px;"/>
  <path d="M169.51,139.26c1.82,1.15,3.03,1.91,4.57,2.88-7.52,13.02-14.9,25.78-22.5,38.91-1.64-.94-3-1.71-4.68-2.67,7.54-13.05,14.91-25.8,22.6-39.13Z" style="fill: #fff; stroke-width: 0px;"/>
  <path d="M176.7,137.61c-1.75-.98-3.01-1.69-4.65-2.61,2.15-3.78,4.16-7.32,6.34-11.16,1.77.21,3.48.42,5.75.7-2.57,4.52-4.84,8.51-7.44,13.08Z" style="fill: #fff; stroke-width: 0px;"/>
  <path d="M303.99,134.95c-1.6.92-2.94,1.7-4.68,2.69-2.54-4.47-4.86-8.55-7.45-13.12,2.32-.25,3.89-.42,5.73-.61,2.11,3.64,4.15,7.16,6.4,11.04Z" style="fill: #fff; stroke-width: 0px;"/>
</svg>