<svg width="461" height="458" viewBox="0 0 461 458" fill="none" xmlns="http://www.w3.org/2000/svg">
<path d="M295.642 228.5C295.642 291.565 288.257 348.641 276.33 389.935C270.366 410.585 263.273 427.26 255.419 438.761C247.554 450.279 239.003 456.5 230.142 456.5C221.28 456.5 212.729 450.279 204.864 438.761C197.01 427.26 189.917 410.585 183.953 389.935C172.026 348.641 164.642 291.565 164.642 228.5C164.642 165.435 172.026 108.359 183.953 67.0648C189.917 46.4146 197.01 29.7396 204.864 18.2386C212.729 6.72125 221.28 0.5 230.142 0.5C239.003 0.5 247.554 6.72125 255.419 18.2386C263.273 29.7396 270.366 46.4146 276.33 67.0648C288.257 108.359 295.642 165.435 295.642 228.5Z" stroke="white"/>
<path d="M225.506 258.092C163.27 248.511 107.455 236.466 67.5271 224.738C47.5596 218.874 31.585 213.094 20.7712 207.751C15.361 205.077 11.2705 202.526 8.61932 200.146C5.94556 197.746 4.85524 195.63 5.13479 193.814C5.41434 191.998 7.09056 190.308 10.3624 188.823C13.6066 187.351 18.275 186.148 24.2388 185.226C36.1591 183.382 53.1322 182.674 73.9391 183.087C115.545 183.911 172.399 189.21 234.635 198.791C296.871 208.372 352.687 220.417 392.614 232.145C412.582 238.009 428.557 243.789 439.37 249.132C444.781 251.806 448.871 254.357 451.522 256.737C454.196 259.137 455.286 261.253 455.007 263.069C454.727 264.885 453.051 266.575 449.779 268.06C446.535 269.532 441.867 270.735 435.903 271.657C423.982 273.501 407.009 274.209 386.202 273.796C344.596 272.972 287.742 267.673 225.506 258.092Z" stroke="white"/>
<circle cx="229.642" cy="228.5" r="228" stroke="white"/>
<circle cx="229.642" cy="228.5" r="172" stroke="white"/>
<circle cx="229.642" cy="228.5" r="32" stroke="white"/>
<circle cx="345.642" cy="347.5" r="21" stroke="white"/>
<circle cx="357.642" cy="115.5" r="32" stroke="white"/>
<line x1="1.14151" y1="228.5" x2="458.142" y2="228.5" stroke="white"/>
<circle cx="358.642" cy="114.5" r="7" stroke="white"/>
<circle cx="229.642" cy="228.5" r="41" stroke="white"/>
<circle cx="103.642" cy="365.5" r="41" stroke="white"/>
<circle cx="136.642" cy="127.5" r="34" stroke="white"/>
<circle cx="163.642" cy="169.5" r="15" stroke="white"/>
<circle cx="229.642" cy="123.5" r="15" stroke="white"/>
<circle cx="308.142" cy="282" r="19.5" stroke="white"/>
<line x1="193.854" y1="209.409" x2="85.8538" y2="133.409" stroke="white"/>
<line x1="401.854" y1="388.409" x2="267.854" y2="294.409" stroke="white"/>
<line x1="230.142" y1="0.5" x2="230.141" y2="457.5" stroke="white"/>
<line x1="417.459" y1="66.3861" x2="293.459" y2="168.386" stroke="white"/>
<line x1="396.282" y1="184.48" x2="270.282" y2="221.48" stroke="white"/>
<circle cx="283.642" cy="217.5" r="4" stroke="white"/>
<circle cx="230.642" cy="228.5" r="4" stroke="white"/>
<circle cx="350.642" cy="352.5" r="4" stroke="white"/>
<circle cx="88.6415" cy="327.5" r="4" stroke="white"/>
<circle cx="185.642" cy="62.5" r="4" stroke="white"/>
<line x1="323.769" y1="293.667" x2="399.769" y2="208.667" stroke="white"/>
<line x1="172.787" y1="390.648" x2="294.787" y2="267.648" stroke="white"/>
<line x1="92.701" y1="325.764" x2="165.701" y2="189.764" stroke="white"/>
<circle cx="182.142" cy="388" r="10.5" stroke="white"/>
<line x1="158.754" y1="153.316" x2="79.7538" y2="56.3157" stroke="white"/>
</svg>
