<svg width="600" height="76" viewBox="0 0 600 76" fill="none" xmlns="http://www.w3.org/2000/svg">
<g clip-path="url(#clip0_48_2)">
<path d="M596.36 14.045C595.31 14.865 594.47 15.535 593.38 16.395C589.25 11.785 584.7 8.43499 578.21 8.94499C572.6 9.38499 567.74 12.965 566.39 18.095C564.92 23.655 566.61 27.795 572.32 30.995C578.12 34.245 584.03 37.385 590.13 40.005C603.19 45.615 601.75 60.035 594.69 67.365C583.32 79.185 564.18 75.715 557.29 60.155C558.27 59.535 559.3 58.875 560.53 58.095C561.85 59.985 562.91 61.655 564.11 63.205C571.03 72.125 584.2 72.455 591.55 63.925C597.2 57.375 596.27 49.275 588.88 44.805C582.91 41.195 576.53 38.265 570.33 35.035C562.58 30.995 559.72 25.525 561.47 18.095C563.33 10.185 569.47 5.15499 577.44 4.76499C585.37 4.37499 591.69 7.02499 596.35 14.055L596.36 14.045Z" fill="white"/>
<path d="M325.41 14.065C324.33 14.945 323.58 15.545 322.59 16.345C321.06 14.945 319.7 13.515 318.16 12.325C313.44 8.65499 308.14 7.82499 302.64 10.015C298.12 11.805 295.59 15.355 295.06 20.295C294.46 25.825 297.57 29.085 301.92 31.405C307.64 34.465 313.39 37.525 319.33 40.115C330.73 45.095 331.1 57.165 325.7 64.795C320.26 72.475 312.42 75.245 303.36 74.045C295.13 72.955 289.5 68.135 286.2 60.045C287.4 59.415 288.48 58.855 289.63 58.255C291.18 60.415 292.4 62.405 293.91 64.145C301.1 72.415 314.23 72.005 321.03 63.355C326.09 56.915 325.1 49.205 318.1 44.945C312 41.235 305.46 38.245 299.12 34.925C291.66 31.025 288.8 25.575 290.4 18.335C292.15 10.395 298.3 5.20499 306.18 4.74499C314.12 4.28499 320.51 6.86499 325.41 14.055V14.065Z" fill="white"/>
<path d="M29.56 16.305C21.38 35.535 13.2 54.765 4.91999 74.225C3.58999 74.285 2.33999 74.345 -0.0100098 74.455C10.08 50.495 19.87 27.225 29.65 3.965C30.08 3.985 30.52 3.995 30.95 4.015C40.68 27.195 50.41 50.385 60.38 74.125H55.55C47.35 54.775 39.19 35.525 31.04 16.275C30.54 16.285 30.05 16.295 29.55 16.305H29.56Z" fill="white"/>
<path d="M287.42 74.195C285.52 74.295 284.29 74.355 282.69 74.445C274.42 54.935 266.22 35.585 258.01 16.225L256.65 16.135C248.42 35.465 240.18 54.785 231.88 74.265H227.07C237.05 50.525 246.81 27.335 256.56 4.155C257.01 4.095 257.47 4.035 257.92 3.985C267.68 27.215 277.44 50.445 287.42 74.205V74.195Z" fill="white"/>
<path d="M409.42 20.645C411.3 22.715 412.57 24.125 414.26 26.005V61.375C422.15 72.035 435.08 72.225 443.87 62.055V51.165C440.63 50.895 437.45 50.645 433.76 50.335C434.37 48.705 434.79 47.565 435.17 46.535H448.26C448.26 52.185 448.46 57.485 448.14 62.765C448.04 64.345 446.73 66.115 445.51 67.325C437.6 75.145 424.17 76.045 415.27 69.415C411.25 66.415 408.75 62.895 409 57.285C409.46 46.995 409.12 36.675 409.14 26.365C409.14 24.775 409.29 23.195 409.42 20.655V20.645Z" fill="white"/>
<path d="M219.71 73.225C216.3 74.855 214.64 73.195 212.97 71.195C204.55 61.135 196.08 51.115 187.26 40.645C184.9 43.205 182.81 45.465 180.48 47.985C178.71 44.975 179.82 42.815 181.63 40.695C189.06 31.945 196.46 23.185 203.86 14.405C205.03 13.015 206.12 11.565 207.88 9.335H187.42V5.215H217.17C207.83 16.235 199 26.655 189.87 37.425C199.87 49.405 209.72 61.215 219.74 73.215L219.71 73.225Z" fill="white"/>
<path d="M510.25 6.715V2.455H536.15C536.98 5.145 538.7 8.215 538.74 11.305C538.98 31.105 538.86 50.905 538.84 70.705C538.84 71.515 538.62 72.315 538.45 73.425C537.1 73.565 535.87 73.705 533.75 73.925V6.715H510.25Z" fill="white"/>
<path d="M122.01 62.565C123.38 60.905 124.88 59.075 126.99 56.505C127.22 59.375 127.35 61.145 127.48 62.785C135.53 72.965 147.65 73.155 156.97 63.115V21.795C158.07 20.585 159.14 19.405 160.77 17.625C161.04 18.895 161.26 19.435 161.26 19.985C161.29 34.135 161.36 48.295 161.2 62.445C161.18 64.235 160.29 66.405 159.09 67.745C148.8 79.145 129.45 76.615 122.01 62.565Z" fill="white"/>
<path d="M74.08 74.035C72.58 74.335 71.08 74.635 69.58 74.935C69.32 74.615 69.06 74.295 68.79 73.975C71.27 69.385 73.69 64.765 76.23 60.205C86.1 42.515 96 24.845 105.91 7.18499C107.01 5.22499 107.95 2.75499 111.55 5.00499C107.43 12.645 103.41 20.225 99.26 27.745C91.32 42.165 83.3 56.535 75.34 70.945C74.78 71.955 74.45 73.075 74.01 74.145L74.07 74.045L74.08 74.035Z" fill="white"/>
<path d="M455.32 50.705V46.935H508.59V73.685C507.06 73.785 505.83 73.855 503.91 73.985V50.705H455.32Z" fill="white"/>
<path d="M394.73 73.385H390.21V17.445C391.06 16.715 392.53 15.455 394.73 13.555V73.395V73.385Z" fill="white"/>
<path d="M337.23 71.615C336.45 72.215 335.67 72.815 334.33 73.855V3.11499C335.29 2.99499 336.5 2.85499 337.54 2.72499C337.94 3.29499 338.29 3.55499 338.29 3.82499C338.31 25.305 338.31 46.795 338.29 68.275C338.29 68.915 337.95 69.555 337.77 70.185C337.59 70.665 337.42 71.145 337.24 71.615H337.23Z" fill="white"/>
<path d="M444.22 13.165C435.15 2.765 422.88 2.805 414.47 13.015C414.37 14.545 414.26 16.345 414.07 19.325C411.93 16.815 410.42 15.045 409.05 13.435C416.04 -0.825001 436.23 -3.385 446.33 8.345C447.33 9.515 448.11 11.235 448.2 12.755C448.45 16.895 448.29 21.055 448.29 25.615C446.91 25.725 445.74 25.815 444.22 25.925V13.175V13.165Z" fill="white"/>
<path d="M126.99 50.635C125.93 51.815 124.64 53.235 122.53 55.595V4.285C123.78 4.105 125.15 3.895 126.99 3.625V50.625V50.635Z" fill="white"/>
<path d="M508.58 2.075V42.775C507.13 42.915 505.88 43.035 504.26 43.195V2.075H508.58Z" fill="white"/>
<path d="M465.12 2.015H469.26V42.805C468.11 42.905 466.77 43.015 465.12 43.155V2.015Z" fill="white"/>
<path d="M337.23 71.615C337.41 71.135 337.58 70.655 337.76 70.185H373.77C373.88 71.145 374.01 72.205 374.15 73.405C373.35 73.665 372.74 74.025 372.13 74.025C361.53 74.075 350.92 74.085 340.32 74.105C338.61 74.105 336.85 74.215 337.23 71.625V71.615Z" fill="white"/>
<path d="M179.97 5.275C181.27 5.215 182.36 5.155 183.46 5.105C183.74 5.715 184.11 6.145 184.11 6.575C184.26 14.385 184.61 22.215 184.32 30.015C184.23 32.425 182.37 34.765 181.32 37.145C180.87 36.985 180.42 36.815 179.96 36.655V5.275H179.97Z" fill="white"/>
<path d="M74.01 74.135C75.09 73.105 76.17 72.085 77.33 70.975H109.44V75.065C97.93 75.065 86.79 75.075 75.66 75.025C75.13 75.025 74.6 74.385 74.08 74.035L74.02 74.135H74.01Z" fill="white"/>
<path d="M71.74 7.805V4.005H105.77C104.89 5.635 104.25 6.835 103.72 7.805H71.73H71.74Z" fill="white"/>
<path d="M537.97 2.515H563.99C563.16 4.355 562.59 5.615 562.02 6.865H540.49C539.98 5.985 539.25 4.715 537.98 2.515H537.97Z" fill="white"/>
<path d="M18.17 51.255C19.31 49.375 19.96 48.295 20.56 47.315H40.08C40.64 48.395 41.21 49.495 42.12 51.255H18.16H18.17Z" fill="white"/>
<path d="M245.59 51.225C246.02 49.995 246.16 49.345 246.47 48.795C246.79 48.245 247.3 47.795 247.73 47.295H267.05C267.62 48.355 268.22 49.445 269.18 51.225H245.59Z" fill="white"/>
<path d="M183.93 73.545H179.43C181.14 65.125 176.26 56.225 183.93 48.085V73.545Z" fill="white"/>
<path d="M465.24 54.715H469.34V73.565C468.06 73.725 466.86 73.865 465.24 74.065V54.715Z" fill="white"/>
<path d="M157.41 3.985H160.96V13.005C160.42 13.385 159.1 14.285 157.41 15.455V3.985Z" fill="white"/>
<path d="M390.31 2.735C391.99 2.855 393.27 2.945 394.59 3.035C396.04 7.265 393.03 8.725 390.31 11.465V2.735Z" fill="white"/>
</g>
<defs>
<clipPath id="clip0_48_2">
<rect width="600.02" height="74.13" fill="white" transform="translate(-0.0100098 0.934998)"/>
</clipPath>
</defs>
</svg>
